<svg width="720" height="560" viewBox="0 0 720 560" fill="none" xmlns="http://www.w3.org/2000/svg">
  <defs>
    <linearGradient id="heroBg" x1="112" y1="44" x2="586" y2="516" gradientUnits="userSpaceOnUse">
      <stop stop-color="#FFF7EC"/>
      <stop offset="1" stop-color="#D8EFF0"/>
    </linearGradient>
    <linearGradient id="heroAccent" x1="224" y1="154" x2="492" y2="420" gradientUnits="userSpaceOnUse">
      <stop stop-color="#E7F6F4"/>
      <stop offset="1" stop-color="#FFF2E1"/>
    </linearGradient>
    <linearGradient id="heroBallot" x1="281" y1="248" x2="470" y2="431" gradientUnits="userSpaceOnUse">
      <stop stop-color="#1A4B68"/>
      <stop offset="1" stop-color="#0F766E"/>
    </linearGradient>
    <filter id="shadow" x="182" y="130" width="368" height="328" filterUnits="userSpaceOnUse" color-interpolation-filters="sRGB">
      <feDropShadow dx="0" dy="18" stdDeviation="18" flood-color="#1A4B68" flood-opacity="0.16"/>
    </filter>
  </defs>
  <rect x="20" y="20" width="680" height="520" rx="42" fill="url(#heroBg)"/>
  <circle cx="548" cy="124" r="84" fill="#F3C48B" fill-opacity="0.35"/>
  <circle cx="170" cy="430" r="92" fill="#8DD1CA" fill-opacity="0.24"/>
  <path d="M102 430C192 350 282 310 372 310C462 310 552 350 618 430" stroke="#C9E4E3" stroke-width="18" stroke-linecap="round"/>
  <rect x="84" y="94" width="184" height="122" rx="28" fill="#FFFCF6"/>
  <rect x="106" y="118" width="62" height="14" rx="7" fill="#D47A3A" fill-opacity="0.2"/>
  <rect x="106" y="148" width="130" height="12" rx="6" fill="#D9E8EC"/>
  <rect x="106" y="172" width="102" height="12" rx="6" fill="#D9E8EC"/>
  <circle cx="226" cy="160" r="20" fill="#0F766E" fill-opacity="0.1"/>
  <path d="M220 160H232" stroke="#0F766E" stroke-width="4" stroke-linecap="round"/>
  <path d="M226 154V166" stroke="#0F766E" stroke-width="4" stroke-linecap="round"/>
  <rect x="516" y="340" width="130" height="118" rx="26" fill="#FFFCF6"/>
  <rect x="542" y="364" width="78" height="12" rx="6" fill="#1A4B68" fill-opacity="0.12"/>
  <path d="M544 408L568 388L590 402L620 372" stroke="#0F766E" stroke-width="8" stroke-linecap="round" stroke-linejoin="round"/>
  <circle cx="544" cy="408" r="8" fill="#D47A3A"/>
  <circle cx="568" cy="388" r="8" fill="#1A4B68"/>
  <circle cx="590" cy="402" r="8" fill="#D47A3A"/>
  <circle cx="620" cy="372" r="8" fill="#0F766E"/>
  <g filter="url(#shadow)">
    <rect x="228" y="186" width="276" height="222" rx="36" fill="url(#heroAccent)"/>
    <rect x="272" y="262" width="188" height="138" rx="30" fill="url(#heroBallot)"/>
    <rect x="314" y="246" width="104" height="18" rx="9" fill="#F7FAFB" fill-opacity="0.72"/>
    <path d="M344 190L404 238L376 250L318 206L344 190Z" fill="#FFFFFF"/>
    <path d="M478 236H538" stroke="#D47A3A" stroke-width="10" stroke-linecap="round"/>
    <path d="M494 214L538 236L494 258" stroke="#D47A3A" stroke-width="10" stroke-linecap="round" stroke-linejoin="round"/>
  </g>
  <circle cx="244" cy="232" r="34" fill="#F6C493"/>
  <path d="M212 332C220 282 240 258 274 258C308 258 328 282 336 332" fill="#1A4B68"/>
  <path d="M240 236C240 216.118 256.118 200 276 200C295.882 200 312 216.118 312 236V262H240V236Z" fill="#D47A3A"/>
  <circle cx="484" cy="232" r="34" fill="#F6C493"/>
  <path d="M450 336C456 286 476 258 512 258C548 258 568 286 574 336" fill="#0F766E"/>
  <path d="M452 232C452 210.461 469.461 193 491 193C512.539 193 530 210.461 530 232V262H452V232Z" fill="#1A4B68"/>
  <path d="M331 184C339 162 352 148 372 148C392 148 406 162 414 184" stroke="#D47A3A" stroke-width="10" stroke-linecap="round"/>
</svg>
