<svg width="320" height="220" viewBox="0 0 320 220" fill="none" xmlns="http://www.w3.org/2000/svg">
  <defs>
    <linearGradient id="candidateBg" x1="28" y1="20" x2="286" y2="198" gradientUnits="userSpaceOnUse">
      <stop stop-color="#FFF6EA"/>
      <stop offset="1" stop-color="#E0F3F1"/>
    </linearGradient>
  </defs>
  <rect x="12" y="12" width="296" height="196" rx="28" fill="url(#candidateBg)"/>
  <rect x="40" y="54" width="106" height="122" rx="24" fill="#FFFCF6"/>
  <rect x="174" y="42" width="106" height="134" rx="24" fill="#FFFCF6"/>
  <circle cx="93" cy="92" r="24" fill="#F3C48B"/>
  <circle cx="227" cy="84" r="24" fill="#F0BE92"/>
  <path d="M66 152C72 128 84 118 93 118C102 118 114 128 120 152" stroke="#1A4B68" stroke-width="12" stroke-linecap="round"/>
  <path d="M200 144C206 120 218 110 227 110C236 110 248 120 254 144" stroke="#0F766E" stroke-width="12" stroke-linecap="round"/>
  <rect x="62" y="160" width="62" height="10" rx="5" fill="#1A4B68" fill-opacity="0.18"/>
  <rect x="196" y="152" width="62" height="10" rx="5" fill="#0F766E" fill-opacity="0.18"/>
  <path d="M174 190L226 164L278 190" stroke="#D47A3A" stroke-width="8" stroke-linecap="round"/>
</svg>
